<?xml version="1.0" encoding="utf-8"?>
<!-- Generator: Adobe Illustrator 19.1.1, SVG Export Plug-In . SVG Version: 6.00 Build 0)  -->
<svg version="1.0" id="Ebene_1" xmlns="http://www.w3.org/2000/svg" xmlns:xlink="http://www.w3.org/1999/xlink" x="0px" y="0px"
	 viewBox="0 0 135.2 89.1" style="enable-background:new 0 0 135.2 89.1;" xml:space="preserve">
<style type="text/css">
	.st0{fill-rule:evenodd;clip-rule:evenodd;fill:#0080C8;}
	.st1{fill:#F39200;}
	.st2{fill:#0080C8;}
	.st3{fill-rule:evenodd;clip-rule:evenodd;fill:#F39200;}
</style>
<g>
	<path class="st0" d="M49.1,29.1c0.7,0,1.3,0.2,1.7,0.7c0.5,0.5,0.7,1.1,0.7,1.7c0,0.7-0.2,1.2-0.7,1.7c-0.5,0.5-1.1,0.7-1.7,0.7
		c-0.7,0-1.2-0.2-1.7-0.7c-0.5-0.5-0.7-1.1-0.7-1.7c0-0.7,0.2-1.3,0.7-1.7C47.9,29.3,48.5,29.1,49.1,29.1L49.1,29.1z"/>
	<path class="st1" d="M45.3,30.5c0-2.3,1.9-4.2,4.2-4.2c2.3,0,4.2,1.9,4.2,4.2c0,2.3-1.9,4.2-4.2,4.2C47.2,34.7,45.3,32.8,45.3,30.5
		L45.3,30.5z"/>
	<path class="st1" d="M49.8,66.2c1.2,0,2.8-0.5,4.5-1.3c-0.9-0.4-1.6-1.5-1.9-3c-1-5.3,1-17.3,0.6-20.6l0-0.2
		c-0.4-2.2-2.9-3.6-5.8-3.6c-0.4,0-0.9,0.1-1.4,0.1l0.1,0.7c1.5,5.3-2.2,17.9-1.1,23c0,0.2,0.2,1,0.2,1.1
		C45.5,64.5,47.2,66.2,49.8,66.2L49.8,66.2z"/>
	<path class="st1" d="M4.8,60.8c12.4,14.9,33.7-7.4,27-20c-1.8-3.5-5.4-5.9-8.8-7.6c-1.2-0.6-3.5-1.5-5.9-2
		c-0.1,0.8-0.2,1.4-0.2,2.1C16.1,42,15.7,49.8,16,58.5c0.1,2.2-3.9,2.1-5.3,1.4c-6.1-2.8-3.3-11.5-3-16.3c0.3-4.8,0.7-8.8,0.6-13.6
		c0,0-2.9-0.2-4.4-1.2c-2.6-1.6-3.2-4.2-3.8-6.7c-0.8-3.5,6.3-1.3,8.2-1.6c1.7-0.3,1.3-1.7,1.9-1.9c2.1-0.6,4.9,2.7,6.5,4.1
		c0,0,4.8,1.9,5.6,2.3c12.1,5.1,22.6,17.5,18.5,29.8C36.9,66.3,26.8,73.9,14,71.7C8.3,70.8-1.6,62.8,4.8,60.8L4.8,60.8z"/>
	<path class="st2" d="M82,44.5c-1.7-0.6-3.5-2-3.8-3.9c-0.7-5.9,21.6-5,22.3,1.9c0.3,3-3.8,8.1-5.7,10.4c-1.8,2.2-3.7,4.2-5.5,6.3
		l-0.2,0.2l0.3,0l1.6-0.1c5.8-0.4,16.5-2.8,14.8,6.5c-1.6-0.3-3.2-0.4-4.7-0.5c-6.4-0.3-12.5,0.9-18.9,0.8c-2.6,0-3.9-0.7-4.2-3.6
		c-0.3-3.5,8.9-11.5,11.5-14.3c1.3-1.5,2.7-2.9,3.8-4.6l0.1-0.1C93.2,42.9,84,42.1,82,44.5L82,44.5z"/>
	<path class="st3" d="M63.4,51.9c7.3-5.7,7.1-13.2,3.4-8.5C65,45.6,63.9,48.7,63.4,51.9L63.4,51.9z M63.4,57.9l-0.2,0.1
		c2.5,6.8,9.3-2.2,10.6-4.7l0.1,0c7.1,6.4-5.2,15.5-12.2,12.5c-12.2-5.2-2.1-34.8,9.7-28.2C81,42.9,70.7,56,63.4,57.9L63.4,57.9z"/>
	<path class="st1" d="M41,78.4l-3.2-8.2H39l2.1,6c0.2,0.5,0.3,0.9,0.4,1.3c0.1-0.4,0.3-0.9,0.4-1.3l2.2-6h1.1l-3.2,8.2H41L41,78.4z"
		/>
	<path class="st3" d="M50.1,76.4l1,0.1c-0.2,0.6-0.5,1.1-0.9,1.4c-0.4,0.3-1,0.5-1.7,0.5c-0.9,0-1.6-0.3-2.1-0.8
		c-0.5-0.5-0.8-1.3-0.8-2.3c0-1,0.3-1.8,0.8-2.3c0.5-0.6,1.2-0.8,2-0.8c0.8,0,1.4,0.3,2,0.8c0.5,0.5,0.8,1.3,0.8,2.3
		c0,0.1,0,0.1,0,0.3h-4.4c0,0.7,0.2,1.2,0.6,1.5c0.3,0.3,0.7,0.5,1.2,0.5c0.4,0,0.7-0.1,0.9-0.3C49.8,77.2,50,76.9,50.1,76.4
		L50.1,76.4z M46.8,74.8h3.3c0-0.5-0.2-0.9-0.4-1.1c-0.3-0.4-0.7-0.6-1.3-0.6c-0.5,0-0.9,0.2-1.2,0.5C47,73.9,46.8,74.3,46.8,74.8
		L46.8,74.8z"/>
	<path class="st1" d="M52.3,78.4v-6h0.9v0.9c0.2-0.4,0.4-0.7,0.6-0.8c0.2-0.1,0.4-0.2,0.7-0.2c0.3,0,0.7,0.1,1,0.3l-0.3,0.9
		c-0.2-0.1-0.5-0.2-0.7-0.2c-0.2,0-0.4,0.1-0.6,0.2c-0.2,0.1-0.3,0.3-0.4,0.5c-0.1,0.4-0.2,0.8-0.2,1.2v3.1H52.3L52.3,78.4z"/>
	<path class="st3" d="M57,78.4H56v-8.2h1v2.9c0.4-0.5,1-0.8,1.6-0.8c0.4,0,0.7,0.1,1,0.2c0.3,0.1,0.6,0.4,0.8,0.6
		c0.2,0.3,0.4,0.6,0.5,1c0.1,0.4,0.2,0.8,0.2,1.2c0,1-0.3,1.8-0.8,2.4c-0.5,0.6-1.1,0.8-1.8,0.8c-0.7,0-1.3-0.3-1.7-0.9V78.4
		L57,78.4z M57,75.3c0,0.7,0.1,1.2,0.3,1.5c0.3,0.5,0.7,0.8,1.3,0.8c0.4,0,0.8-0.2,1.1-0.6c0.3-0.4,0.5-1,0.5-1.7
		c0-0.8-0.2-1.4-0.5-1.7c-0.3-0.4-0.7-0.6-1.1-0.6c-0.4,0-0.8,0.2-1.1,0.6C57.1,74,57,74.6,57,75.3L57,75.3z"/>
	<path class="st3" d="M66.2,77.6c-0.4,0.3-0.7,0.5-1.1,0.7c-0.3,0.1-0.7,0.2-1.1,0.2c-0.7,0-1.2-0.2-1.5-0.5
		c-0.4-0.3-0.5-0.7-0.5-1.2c0-0.3,0.1-0.6,0.2-0.8c0.1-0.2,0.3-0.4,0.5-0.6c0.2-0.1,0.5-0.3,0.7-0.3c0.2-0.1,0.5-0.1,0.9-0.2
		c0.8-0.1,1.4-0.2,1.8-0.3c0-0.1,0-0.2,0-0.3c0-0.4-0.1-0.7-0.3-0.9c-0.3-0.2-0.6-0.3-1.1-0.3c-0.5,0-0.8,0.1-1.1,0.3
		c-0.2,0.2-0.4,0.5-0.5,0.9l-1-0.1c0.1-0.4,0.2-0.8,0.4-1c0.2-0.3,0.5-0.5,0.9-0.6c0.4-0.1,0.8-0.2,1.4-0.2c0.5,0,0.9,0.1,1.2,0.2
		c0.3,0.1,0.6,0.3,0.7,0.5c0.1,0.2,0.3,0.4,0.3,0.7c0,0.2,0.1,0.5,0.1,0.9v1.3c0,0.9,0,1.5,0.1,1.8c0,0.2,0.1,0.5,0.3,0.7h-1.1
		C66.3,78.1,66.2,77.9,66.2,77.6L66.2,77.6z M66.1,75.4c-0.4,0.1-0.9,0.3-1.7,0.4c-0.4,0.1-0.7,0.1-0.9,0.2
		c-0.2,0.1-0.3,0.2-0.4,0.3c-0.1,0.1-0.1,0.3-0.1,0.5c0,0.3,0.1,0.5,0.3,0.7c0.2,0.2,0.5,0.3,0.9,0.3c0.4,0,0.7-0.1,1-0.3
		c0.3-0.2,0.5-0.4,0.7-0.7c0.1-0.2,0.2-0.6,0.2-1V75.4L66.1,75.4z"/>
	<path class="st1" d="M68.6,78.4v-6h0.9v0.8c0.4-0.7,1.1-1,1.9-1c0.4,0,0.7,0.1,1,0.2c0.3,0.1,0.5,0.3,0.7,0.5
		c0.2,0.2,0.3,0.5,0.3,0.7c0,0.2,0.1,0.5,0.1,1v3.7h-1v-3.6c0-0.4,0-0.7-0.1-0.9c-0.1-0.2-0.2-0.4-0.4-0.5c-0.2-0.1-0.4-0.2-0.7-0.2
		c-0.4,0-0.8,0.1-1.1,0.4c-0.3,0.3-0.5,0.8-0.5,1.6v3.3H68.6L68.6,78.4z"/>
	<path class="st3" d="M78.7,78.4v-0.8c-0.4,0.6-0.9,0.9-1.7,0.9c-0.5,0-0.9-0.1-1.3-0.4c-0.4-0.3-0.7-0.6-0.9-1.1
		c-0.2-0.5-0.3-1-0.3-1.6c0-0.6,0.1-1.1,0.3-1.6c0.2-0.5,0.5-0.9,0.9-1.1c0.4-0.3,0.8-0.4,1.3-0.4c0.4,0,0.7,0.1,1,0.2
		c0.3,0.1,0.5,0.3,0.7,0.6v-3h1v8.2H78.7L78.7,78.4z M75.5,75.4c0,0.8,0.2,1.3,0.5,1.7c0.3,0.4,0.7,0.6,1.1,0.6
		c0.4,0,0.8-0.2,1.1-0.5c0.3-0.4,0.5-0.9,0.5-1.7c0-0.8-0.2-1.4-0.5-1.8c-0.3-0.4-0.7-0.6-1.2-0.6c-0.4,0-0.8,0.2-1.1,0.5
		C75.7,74,75.5,74.6,75.5,75.4L75.5,75.4z"/>
	<path class="st1" d="M80.7,76.6l1-0.2c0.1,0.4,0.2,0.7,0.5,0.9c0.3,0.2,0.6,0.3,1.1,0.3c0.5,0,0.8-0.1,1-0.3
		c0.2-0.2,0.3-0.4,0.3-0.7c0-0.2-0.1-0.4-0.3-0.5c-0.1-0.1-0.5-0.2-1-0.3c-0.7-0.2-1.3-0.3-1.5-0.5c-0.3-0.1-0.5-0.3-0.7-0.6
		c-0.1-0.2-0.2-0.5-0.2-0.8c0-0.3,0.1-0.5,0.2-0.7c0.1-0.2,0.3-0.4,0.5-0.6c0.2-0.1,0.4-0.2,0.6-0.3c0.3-0.1,0.6-0.1,0.9-0.1
		c0.5,0,0.9,0.1,1.2,0.2c0.4,0.1,0.6,0.3,0.8,0.5c0.2,0.2,0.3,0.5,0.3,0.9l-1,0.1c0-0.3-0.2-0.5-0.4-0.7c-0.2-0.2-0.5-0.3-0.9-0.3
		c-0.5,0-0.8,0.1-1,0.2c-0.2,0.2-0.3,0.3-0.3,0.5c0,0.1,0,0.2,0.1,0.4c0.1,0.1,0.2,0.2,0.4,0.3c0.1,0,0.4,0.1,0.9,0.3
		c0.7,0.2,1.2,0.3,1.5,0.5c0.3,0.1,0.5,0.3,0.7,0.5c0.2,0.2,0.2,0.5,0.2,0.9c0,0.3-0.1,0.7-0.3,1c-0.2,0.3-0.5,0.5-0.8,0.7
		c-0.4,0.2-0.8,0.2-1.3,0.2c-0.8,0-1.4-0.2-1.8-0.5C81.1,77.7,80.9,77.2,80.7,76.6L80.7,76.6z"/>
	<path class="st3" d="M86.6,78.8l1,0.1c0,0.3,0.2,0.5,0.3,0.7c0.3,0.2,0.6,0.3,1,0.3c0.5,0,0.8-0.1,1.1-0.3c0.3-0.2,0.4-0.4,0.5-0.8
		c0.1-0.2,0.1-0.6,0.1-1.3c-0.4,0.5-1,0.8-1.6,0.8c-0.8,0-1.5-0.3-1.9-0.9c-0.4-0.6-0.7-1.3-0.7-2.1c0-0.6,0.1-1.1,0.3-1.6
		c0.2-0.5,0.5-0.9,0.9-1.1c0.4-0.3,0.9-0.4,1.4-0.4c0.7,0,1.3,0.3,1.7,0.9v-0.7h0.9v5.2c0,0.9-0.1,1.6-0.3,2
		c-0.2,0.4-0.5,0.7-0.9,0.9c-0.4,0.2-0.9,0.3-1.5,0.3c-0.7,0-1.3-0.2-1.7-0.5C86.8,80,86.6,79.5,86.6,78.8L86.6,78.8z M87.4,75.3
		c0,0.8,0.2,1.4,0.5,1.7c0.3,0.4,0.7,0.5,1.2,0.5c0.5,0,0.9-0.2,1.2-0.5c0.3-0.4,0.5-0.9,0.5-1.7c0-0.7-0.2-1.3-0.5-1.6
		c-0.3-0.4-0.7-0.6-1.2-0.6c-0.4,0-0.8,0.2-1.1,0.5C87.6,74,87.4,74.5,87.4,75.3L87.4,75.3z"/>
	<path class="st3" d="M97.1,76.4l1,0.1c-0.2,0.6-0.5,1.1-0.9,1.4c-0.4,0.3-1,0.5-1.7,0.5c-0.9,0-1.6-0.3-2.1-0.8
		c-0.5-0.5-0.8-1.3-0.8-2.3c0-1,0.3-1.8,0.8-2.3c0.5-0.6,1.2-0.8,2-0.8c0.8,0,1.4,0.3,2,0.8c0.5,0.5,0.8,1.3,0.8,2.3
		c0,0.1,0,0.1,0,0.3h-4.4c0,0.7,0.2,1.2,0.6,1.5c0.3,0.3,0.7,0.5,1.2,0.5c0.4,0,0.7-0.1,0.9-0.3C96.8,77.2,97,76.9,97.1,76.4
		L97.1,76.4z M93.8,74.8h3.3c0-0.5-0.2-0.9-0.4-1.1c-0.3-0.4-0.7-0.6-1.3-0.6c-0.5,0-0.9,0.2-1.2,0.5C94,73.9,93.8,74.3,93.8,74.8
		L93.8,74.8z"/>
	<path class="st1" d="M99.3,78.4v-6h0.9v0.8c0.2-0.3,0.4-0.5,0.7-0.7c0.3-0.2,0.7-0.3,1.1-0.3c0.4,0,0.8,0.1,1.1,0.3
		c0.3,0.2,0.5,0.4,0.6,0.8c0.5-0.7,1.1-1,1.8-1c0.6,0,1,0.2,1.4,0.5c0.3,0.3,0.5,0.8,0.5,1.5v4.1h-1v-3.8c0-0.4,0-0.7-0.1-0.9
		c-0.1-0.2-0.2-0.3-0.4-0.4c-0.2-0.1-0.4-0.2-0.6-0.2c-0.4,0-0.8,0.1-1,0.4c-0.3,0.3-0.4,0.7-0.4,1.3v3.5h-1v-3.9
		c0-0.4-0.1-0.8-0.2-1c-0.2-0.2-0.4-0.3-0.8-0.3c-0.3,0-0.5,0.1-0.8,0.2c-0.2,0.1-0.4,0.4-0.5,0.7c-0.1,0.3-0.2,0.7-0.2,1.2v3.1
		H99.3L99.3,78.4z"/>
	<path class="st3" d="M112.9,76.4l1,0.1c-0.2,0.6-0.5,1.1-0.9,1.4c-0.4,0.3-1,0.5-1.7,0.5c-0.9,0-1.6-0.3-2.1-0.8
		c-0.5-0.5-0.8-1.3-0.8-2.3c0-1,0.3-1.8,0.8-2.3c0.5-0.6,1.2-0.8,2-0.8c0.8,0,1.4,0.3,2,0.8c0.5,0.5,0.8,1.3,0.8,2.3
		c0,0.1,0,0.1,0,0.3h-4.4c0,0.7,0.2,1.2,0.6,1.5c0.3,0.3,0.7,0.5,1.2,0.5c0.4,0,0.7-0.1,0.9-0.3C112.5,77.2,112.7,76.9,112.9,76.4
		L112.9,76.4z M109.5,74.8h3.3c0-0.5-0.2-0.9-0.4-1.1c-0.3-0.4-0.7-0.6-1.3-0.6c-0.5,0-0.9,0.2-1.2,0.5
		C109.8,73.9,109.6,74.3,109.5,74.8L109.5,74.8z"/>
	<path class="st3" d="M115.1,71.3v-1.2h1v1.2H115.1L115.1,71.3z M115.1,78.4v-6h1v6H115.1L115.1,78.4z"/>
	<path class="st1" d="M117.5,78.4v-6h0.9v0.8c0.4-0.7,1.1-1,1.9-1c0.4,0,0.7,0.1,1,0.2c0.3,0.1,0.5,0.3,0.7,0.5
		c0.1,0.2,0.3,0.5,0.3,0.7c0,0.2,0.1,0.5,0.1,1v3.7h-1v-3.6c0-0.4,0-0.7-0.1-0.9c-0.1-0.2-0.2-0.4-0.4-0.5c-0.2-0.1-0.4-0.2-0.7-0.2
		c-0.4,0-0.8,0.1-1.1,0.4c-0.3,0.3-0.5,0.8-0.5,1.6v3.3H117.5L117.5,78.4z"/>
	<path class="st3" d="M127.6,78.4v-0.8c-0.4,0.6-0.9,0.9-1.7,0.9c-0.5,0-0.9-0.1-1.3-0.4c-0.4-0.3-0.7-0.6-0.9-1.1
		c-0.2-0.5-0.3-1-0.3-1.6c0-0.6,0.1-1.1,0.3-1.6c0.2-0.5,0.5-0.9,0.9-1.1c0.4-0.3,0.8-0.4,1.3-0.4c0.4,0,0.7,0.1,1,0.2
		c0.3,0.1,0.5,0.3,0.7,0.6v-3h1v8.2H127.6L127.6,78.4z M124.4,75.4c0,0.8,0.2,1.3,0.5,1.7c0.3,0.4,0.7,0.6,1.1,0.6
		c0.4,0,0.8-0.2,1.1-0.5c0.3-0.4,0.5-0.9,0.5-1.7c0-0.8-0.2-1.4-0.5-1.8c-0.3-0.4-0.7-0.6-1.2-0.6c-0.4,0-0.8,0.2-1.1,0.5
		C124.6,74,124.4,74.6,124.4,75.4L124.4,75.4z"/>
	<path class="st3" d="M134.1,76.4l1,0.1c-0.2,0.6-0.5,1.1-0.9,1.4c-0.4,0.3-1,0.5-1.7,0.5c-0.9,0-1.6-0.3-2.1-0.8
		c-0.5-0.5-0.8-1.3-0.8-2.3c0-1,0.3-1.8,0.8-2.3c0.5-0.6,1.2-0.8,2-0.8c0.8,0,1.4,0.3,2,0.8c0.5,0.5,0.8,1.3,0.8,2.3
		c0,0.1,0,0.1,0,0.3h-4.4c0,0.7,0.2,1.2,0.6,1.5c0.3,0.3,0.7,0.5,1.2,0.5c0.4,0,0.7-0.1,0.9-0.3C133.8,77.2,134,76.9,134.1,76.4
		L134.1,76.4z M130.8,74.8h3.3c0-0.5-0.2-0.9-0.4-1.1c-0.3-0.4-0.7-0.6-1.3-0.6c-0.5,0-0.9,0.2-1.2,0.5
		C131,73.9,130.8,74.3,130.8,74.8L130.8,74.8z"/>
	<path class="st3" d="M70.9,88.4c-0.3,0.2-0.6,0.4-0.8,0.5c-0.3,0.1-0.5,0.2-0.8,0.2c-0.5,0-0.9-0.1-1.2-0.4
		c-0.3-0.2-0.4-0.6-0.4-0.9c0-0.2,0-0.4,0.2-0.6c0.1-0.2,0.2-0.3,0.4-0.4c0.2-0.1,0.4-0.2,0.6-0.3c0.2,0,0.4-0.1,0.7-0.1
		c0.6-0.1,1.1-0.2,1.4-0.3c0-0.1,0-0.2,0-0.2c0-0.3-0.1-0.5-0.2-0.7c-0.2-0.2-0.5-0.3-0.9-0.3c-0.4,0-0.6,0.1-0.8,0.2
		c-0.2,0.1-0.3,0.4-0.4,0.7l-0.8-0.1c0.1-0.3,0.2-0.6,0.3-0.8c0.2-0.2,0.4-0.4,0.7-0.5c0.3-0.1,0.6-0.2,1-0.2c0.4,0,0.7,0,0.9,0.1
		c0.2,0.1,0.4,0.2,0.5,0.3c0.1,0.1,0.2,0.3,0.2,0.5c0,0.1,0,0.4,0,0.7v1c0,0.7,0,1.2,0,1.4c0,0.2,0.1,0.4,0.2,0.5H71
		C70.9,88.8,70.9,88.6,70.9,88.4L70.9,88.4z M70.8,86.7c-0.3,0.1-0.7,0.2-1.3,0.3c-0.3,0-0.5,0.1-0.7,0.2c-0.1,0.1-0.2,0.1-0.3,0.3
		c-0.1,0.1-0.1,0.2-0.1,0.4c0,0.2,0.1,0.4,0.2,0.5c0.2,0.1,0.4,0.2,0.7,0.2c0.3,0,0.6-0.1,0.8-0.2c0.2-0.1,0.4-0.3,0.5-0.5
		c0.1-0.2,0.1-0.4,0.1-0.8V86.7L70.8,86.7z"/>
	<path class="st1" d="M72.7,89v-4.6h0.7V85c0.3-0.5,0.8-0.8,1.5-0.8c0.3,0,0.5,0.1,0.8,0.2c0.2,0.1,0.4,0.2,0.5,0.4
		c0.1,0.2,0.2,0.4,0.2,0.6c0,0.1,0,0.4,0,0.8V89h-0.8v-2.8c0-0.3,0-0.5-0.1-0.7c-0.1-0.2-0.2-0.3-0.3-0.4C75.1,85,74.9,85,74.7,85
		c-0.3,0-0.6,0.1-0.9,0.3c-0.2,0.2-0.4,0.6-0.4,1.2V89H72.7L72.7,89z"/>
	<path class="st3" d="M82.8,89v-0.6c-0.3,0.5-0.7,0.7-1.3,0.7c-0.4,0-0.7-0.1-1-0.3c-0.3-0.2-0.5-0.5-0.7-0.8
		c-0.2-0.4-0.2-0.8-0.2-1.2c0-0.5,0.1-0.9,0.2-1.2c0.2-0.4,0.4-0.7,0.7-0.9c0.3-0.2,0.6-0.3,1-0.3c0.3,0,0.5,0.1,0.7,0.2
		c0.2,0.1,0.4,0.3,0.5,0.5v-2.3h0.8V89H82.8L82.8,89z M80.4,86.7c0,0.6,0.1,1,0.4,1.3c0.2,0.3,0.5,0.4,0.9,0.4
		c0.3,0,0.6-0.1,0.9-0.4c0.2-0.3,0.4-0.7,0.4-1.3c0-0.6-0.1-1.1-0.4-1.4c-0.2-0.3-0.5-0.4-0.9-0.4c-0.3,0-0.6,0.1-0.9,0.4
		C80.5,85.6,80.4,86.1,80.4,86.7L80.4,86.7z"/>
	<path class="st3" d="M87.8,87.5l0.8,0.1c-0.1,0.5-0.4,0.8-0.7,1.1c-0.3,0.3-0.8,0.4-1.3,0.4c-0.7,0-1.2-0.2-1.6-0.6
		c-0.4-0.4-0.6-1-0.6-1.7c0-0.8,0.2-1.4,0.6-1.8c0.4-0.4,0.9-0.6,1.5-0.6c0.6,0,1.1,0.2,1.5,0.6c0.4,0.4,0.6,1,0.6,1.8
		c0,0,0,0.1,0,0.2h-3.4c0,0.5,0.2,0.9,0.4,1.2c0.3,0.3,0.6,0.4,1,0.4c0.3,0,0.5-0.1,0.7-0.2C87.5,88.1,87.6,87.8,87.8,87.5
		L87.8,87.5z M85.2,86.2h2.5c0-0.4-0.1-0.7-0.3-0.9c-0.2-0.3-0.6-0.4-1-0.4c-0.4,0-0.7,0.1-0.9,0.4C85.4,85.5,85.2,85.8,85.2,86.2
		L85.2,86.2z"/>
	<path class="st1" d="M89.4,89v-4.6h0.7v0.7c0.2-0.3,0.3-0.5,0.5-0.6c0.2-0.1,0.3-0.2,0.5-0.2c0.3,0,0.5,0.1,0.8,0.2l-0.3,0.7
		c-0.2-0.1-0.4-0.2-0.6-0.2c-0.2,0-0.3,0.1-0.5,0.2c-0.1,0.1-0.2,0.2-0.3,0.4c-0.1,0.3-0.1,0.6-0.1,0.9V89H89.4L89.4,89z"/>
	<polygon class="st1" points="95.6,89 95.6,80.7 96.7,80.7 96.7,88 100.8,88 100.8,89 95.6,89 	"/>
	<path class="st3" d="M105.7,88.2c-0.4,0.3-0.7,0.5-1.1,0.7c-0.3,0.1-0.7,0.2-1.1,0.2c-0.7,0-1.2-0.2-1.5-0.5
		c-0.4-0.3-0.5-0.7-0.5-1.2c0-0.3,0.1-0.6,0.2-0.8c0.1-0.2,0.3-0.4,0.5-0.6c0.2-0.1,0.5-0.3,0.7-0.3c0.2-0.1,0.5-0.1,0.9-0.2
		c0.8-0.1,1.4-0.2,1.8-0.3c0-0.1,0-0.2,0-0.3c0-0.4-0.1-0.7-0.3-0.9c-0.3-0.2-0.6-0.3-1.1-0.3c-0.5,0-0.8,0.1-1.1,0.3
		c-0.2,0.2-0.4,0.5-0.5,0.9l-1-0.1c0.1-0.4,0.2-0.8,0.4-1c0.2-0.3,0.5-0.5,0.9-0.6c0.4-0.1,0.8-0.2,1.4-0.2c0.5,0,0.9,0.1,1.2,0.2
		c0.3,0.1,0.6,0.3,0.7,0.5c0.2,0.2,0.3,0.4,0.3,0.7c0,0.2,0.1,0.5,0.1,0.9v1.3c0,0.9,0,1.5,0.1,1.8c0,0.2,0.1,0.5,0.3,0.7h-1.1
		C105.8,88.7,105.7,88.5,105.7,88.2L105.7,88.2z M105.6,86c-0.4,0.1-0.9,0.3-1.6,0.4c-0.4,0.1-0.7,0.1-0.9,0.2
		c-0.2,0.1-0.3,0.2-0.4,0.3c-0.1,0.1-0.1,0.3-0.1,0.5c0,0.3,0.1,0.5,0.3,0.7c0.2,0.2,0.5,0.3,0.9,0.3c0.4,0,0.7-0.1,1-0.3
		c0.3-0.2,0.5-0.4,0.7-0.7c0.1-0.2,0.2-0.6,0.2-1V86L105.6,86z"/>
	<path class="st1" d="M108.1,89v-8.2h1v3c0.5-0.5,1.1-0.8,1.8-0.8c0.4,0,0.8,0.1,1.1,0.3c0.3,0.2,0.6,0.4,0.7,0.7
		c0.1,0.3,0.2,0.8,0.2,1.3V89h-1v-3.8c0-0.5-0.1-0.9-0.3-1.1c-0.2-0.2-0.5-0.3-0.9-0.3c-0.3,0-0.6,0.1-0.8,0.2
		c-0.3,0.2-0.4,0.4-0.6,0.6c-0.1,0.3-0.2,0.6-0.2,1.1V89H108.1L108.1,89z"/>
	<path class="st1" d="M114.4,89v-6h0.9v0.8c0.4-0.7,1.1-1,1.9-1c0.4,0,0.7,0.1,1,0.2c0.3,0.1,0.5,0.3,0.7,0.5
		c0.1,0.2,0.3,0.5,0.3,0.7c0,0.2,0.1,0.5,0.1,1V89h-1v-3.6c0-0.4,0-0.7-0.1-0.9c-0.1-0.2-0.2-0.4-0.4-0.5c-0.2-0.1-0.4-0.2-0.7-0.2
		c-0.4,0-0.8,0.1-1.1,0.4c-0.3,0.3-0.5,0.8-0.5,1.6V89H114.4L114.4,89z"/>
	<path class="st2" d="M58.9,24.3v15.2c0.4-0.4,0.5-1,0.8-1.2V24.3H58.9L58.9,24.3z"/>
	<path class="st2" d="M39.5,24.2v12.4c-0.2-0.7-0.5-1.2-0.8-1.8V24.2H39.5L39.5,24.2z"/>
	<polygon class="st2" points="54,17 54,23.4 44.3,23.4 44.3,17 43.1,13.3 46.8,0 51.6,0 55.3,13.4 54,17 	"/>
	<polygon class="st2" points="37.8,23.4 37.8,17.2 40.6,8.8 43.4,17.2 43.4,23.4 37.8,23.4 	"/>
	<polygon class="st2" points="55,23.4 55,17.2 57.9,8.8 60.6,17.2 60.6,23.4 55,23.4 	"/>
</g>
<g>
</g>
<g>
</g>
<g>
</g>
<g>
</g>
<g>
</g>
<g>
</g>
</svg>
